<?xml version="1.0" encoding="UTF-8" standalone="no"?>
<!-- Created with Inkscape (http://www.inkscape.org/) -->

<svg
   xmlns:dc="http://purl.org/dc/elements/1.1/"
   xmlns:cc="http://creativecommons.org/ns#"
   xmlns:rdf="http://www.w3.org/1999/02/22-rdf-syntax-ns#"
   xmlns:svg="http://www.w3.org/2000/svg"
   xmlns="http://www.w3.org/2000/svg"
   xmlns:sodipodi="http://sodipodi.sourceforge.net/DTD/sodipodi-0.dtd"
   xmlns:inkscape="http://www.inkscape.org/namespaces/inkscape"
   width="171.23215mm"
   height="138.78654mm"
   viewBox="0 0 171.23215 138.78654"
   version="1.1"
   id="svg8"
   inkscape:version="0.92.4 (5da689c313, 2019-01-14)"
   sodipodi:docname="LOGO VECTORIEL2.svg"
   inkscape:export-filename="D:\site isabelle deborde\LOGO VECTORIEL.png"
   inkscape:export-xdpi="96"
   inkscape:export-ydpi="96">
  <defs
     id="defs2" />
  <sodipodi:namedview
     id="base"
     pagecolor="#ffffff"
     bordercolor="#666666"
     borderopacity="1.0"
     inkscape:pageopacity="0.0"
     inkscape:pageshadow="2"
     inkscape:zoom="0.7"
     inkscape:cx="-171.80335"
     inkscape:cy="223.73978"
     inkscape:document-units="mm"
     inkscape:current-layer="layer1"
     showgrid="false"
     inkscape:window-width="1920"
     inkscape:window-height="1012"
     inkscape:window-x="-8"
     inkscape:window-y="-8"
     inkscape:window-maximized="1" />
  <metadata
     id="metadata5">
    <rdf:RDF>
      <cc:Work
         rdf:about="">
        <dc:format>image/svg+xml</dc:format>
        <dc:type
           rdf:resource="http://purl.org/dc/dcmitype/StillImage" />
        <dc:title></dc:title>
      </cc:Work>
    </rdf:RDF>
  </metadata>
  <g
     inkscape:label="Calque 1"
     inkscape:groupmode="layer"
     id="layer1"
     transform="translate(-20.887852,-69.244598)">
    <path
       inkscape:connector-curvature="0"
       id="path29"
       d="m 104.2953,205.93834 c -0.93316,-1.15104 -4.608706,-5.08711 -8.16792,-8.74681 -6.89732,-7.09208 -9.07121,-10.01359 -10.41672,-13.99914 -0.46293,-1.37127 -0.93997,-2.59147 -1.06008,-2.71158 -0.12011,-0.12006 -1.38889,0.3281 -2.81951,0.99603 -2.53562,1.18381 -2.79531,1.21381 -10.31149,1.19115 -4.2407,-0.0133 -10.88263,-0.11057 -14.759845,-0.21736 -8.273789,-0.22784 -9.548749,0.0789 -14.759839,3.55032 -1.817441,1.21072 -3.453143,2.20182 -3.634887,2.20243 -0.571762,0.002 -0.34639,-5.38202 0.350374,-8.37013 1.162104,-4.98373 2.963466,-8.94198 5.751258,-12.63763 0.581895,-0.77139 1.056595,-1.56445 1.054888,-1.76236 -0.0017,-0.19792 -1.439144,-0.70613 -3.194294,-1.12937 -6.524794,-1.57335 -15.097835,-6.84017 -19.476249,-11.96516 -2.262672,-2.64848 -2.528668,-4.12365 -1.008183,-5.59122 1.707077,-1.64765 7.843756,-4.2498 11.911575,-5.05088 2.128921,-0.41925 3.803737,-0.88245 3.721806,-1.02933 -2.79558,-5.0118 -9.575238,-20.76415 -9.575238,-22.24779 0,-0.91939 4.401461,-2.96957 9.635921,-4.48838 7.223498,-2.09594 17.386814,-1.802 23.950413,0.69269 1.27706,0.48539 2.47063,0.88262 2.65238,0.88275 0.47975,3.2e-4 0.40486,-4.24332 -0.14523,-8.22901 -0.26161,-1.89556 -1.25295,-6.49989 -2.20296,-10.231862 -0.95001,-3.73197 -1.727298,-6.92099 -1.727298,-7.0867 0,-0.54313 5.433018,0.41941 9.032138,1.60017 4.80121,1.57513 8.36116,3.21593 12.81741,5.90763 2.06772,1.24896 3.84491,2.18542 3.94933,2.081 0.10441,-0.10441 0.38827,-1.26518 0.6308,-2.5795 0.99506,-5.39243 6.36072,-13.7697 14.72342,-22.98733 2.39604,-2.64097 4.64435,-4.73637 5.08202,-4.73637 0.44456,0 2.67436,2.12467 5.14236,4.89993 8.43251,9.48231 13.35002,17.14796 14.44548,22.51833 0.30417,1.49114 0.73926,2.77323 0.96686,2.8491 0.22762,0.0759 1.50132,-0.57888 2.83045,-1.45501 3.04932,-2.01004 7.26024,-4.11439 11.22843,-5.61124 3.36789,-1.27042 11.20369,-3.11215 11.59137,-2.72445 0.13305,0.13309 -0.47336,2.6683 -1.34767,5.63383 -1.84996,6.274852 -2.47335,9.750022 -2.84587,15.864572 -0.25709,4.22013 -0.23036,4.41423 0.57216,4.15503 8.58615,-2.77319 7.98119,-2.66824 15.38139,-2.66834 6.37197,-8e-5 7.41662,0.11215 10.86959,1.16778 2.10107,0.64234 4.97593,1.71856 6.38859,2.3916 2.35134,1.12027 2.56356,1.33944 2.51037,2.59255 -0.0868,2.04346 -2.51938,8.4115 -5.94131,15.55286 -1.67284,3.4911 -2.9727,6.4163 -2.88856,6.50043 0.0841,0.0841 1.32528,0.36067 2.75809,0.61452 5.01193,0.888 10.30832,3.05775 13.1361,5.38142 1.71119,1.40613 1.38825,2.44956 -1.82937,5.91103 -5.55931,5.98059 -12.20241,9.83813 -20.71623,12.02956 l -1.88103,0.48416 2.03982,2.85853 c 3.49515,4.89805 5.90786,12.1834 5.90786,17.83932 0,2.6655 0.15303,2.67882 -4.55769,-0.39641 -5.45811,-3.56309 -7.67543,-3.89254 -20.54323,-3.05235 -11.66488,0.76164 -15.03418,0.54631 -18.86035,-1.20536 -1.35039,-0.61822 -2.59442,-0.97041 -2.76452,-0.78266 -0.1701,0.18777 -0.64281,1.36979 -1.05047,2.6267 -1.20808,3.72469 -3.67117,7.00299 -10.86221,14.45722 -3.74032,3.8772 -7.36684,7.79296 -8.05894,8.70169 -0.69211,0.90872 -1.40924,1.65221 -1.59361,1.65221 -0.18436,0 -1.09871,-0.94176 -2.03185,-2.09281 z m 8.67259,-9.15082 c 9.78741,-9.84671 12.47819,-14.40264 11.67395,-19.76579 -0.34837,-2.32303 -2.40566,-5.32676 -4.44327,-6.48737 -1.49065,-0.84905 -5.06319,-1.54422 -5.05489,-0.98361 0.003,0.20305 0.7118,0.82686 1.57512,1.38623 3.18059,2.06083 4.17672,7.1422 2.2227,11.33843 -0.66231,1.4223 -3.13566,4.47188 -6.87312,8.47438 l -5.83848,6.25252 -2.96299,-3.18727 c -9.72213,-10.45808 -10.70517,-11.91705 -10.74595,-15.94852 -0.0289,-2.86257 1.16433,-5.32474 3.29329,-6.79526 2.18158,-1.50688 2.13001,-1.99355 -0.17225,-1.62548 -6.29086,1.00577 -9.36825,7.09891 -6.90733,13.6763 0.50226,1.3424 1.72586,3.4812 2.71912,4.75291 1.52286,1.94975 14.33505,15.75024 14.62232,15.75024 0.0525,0 3.15367,-3.07697 6.89178,-6.83771 z m -1.78915,-8.03228 c 5.23886,-5.52378 6.60303,-7.85241 6.60303,-11.27118 0,-2.76705 -1.04215,-4.44432 -3.36427,-5.41456 -2.11164,-0.88231 -3.72435,-0.75117 -6.06458,0.49316 l -2.07004,1.10063 -2.06756,-1.10063 c -2.48126,-1.32088 -4.66206,-1.40021 -6.56672,-0.23886 -2.10886,1.28585 -2.90351,2.79375 -2.90351,5.50956 0,1.74261 0.29596,2.87291 1.11994,4.27704 1.14693,1.95446 9.81178,11.38121 10.46135,11.38121 0.19818,0 2.38175,-2.13137 4.85236,-4.73637 z m -64.669641,-7.88911 c 3.479847,-1.24148 9.024234,-1.40954 18.878041,-0.57222 7.70035,0.65432 11.53512,0.29218 14.94391,-1.4112 2.47768,-1.23812 5.28748,-3.91924 5.28748,-5.04535 0,-0.32234 -1.3644,-0.0376 -3.73326,0.77878 -4.50841,1.55399 -9.71914,2.09434 -20.49932,2.12578 -10.847442,0.0317 -15.18255,1.0845 -18.284571,4.44074 -1.026492,1.11061 -1.124919,1.35323 -0.440593,1.08606 0.48465,-0.18922 2.216394,-0.82038 3.848313,-1.40259 z m 122.841361,0.0886 c -0.81137,-0.83713 -2.78336,-2.06094 -4.3822,-2.71957 -2.85108,-1.17452 -3.1526,-1.2039 -15.68414,-1.52809 -13.15256,-0.34025 -14.73586,-0.54294 -20.06896,-2.56936 -1.2918,-0.49085 -2.41149,-0.82969 -2.48821,-0.75297 -0.0768,0.0768 0.45516,0.96039 1.18197,1.96372 1.80396,2.49029 4.06056,3.8752 7.71684,4.73592 3.22405,0.75896 5.48501,0.72504 17.1831,-0.25778 6.22328,-0.52286 11.00562,-0.0221 14.72861,1.54212 3.32599,1.39747 3.52473,1.35207 1.81299,-0.41399 z M 46.085395,177.00727 c 3.040428,-1.49804 3.954831,-1.72821 8.150958,-2.05181 2.599489,-0.20046 8.656717,-0.37458 13.460507,-0.38692 8.17438,-0.021 8.95092,-0.0949 12.11629,-1.15405 3.92427,-1.313 12.1135,-5.51959 11.63696,-5.97759 -0.1783,-0.17137 -3.39731,-0.73799 -7.15336,-1.25915 -7.94226,-1.10204 -13.34777,-2.20812 -18.28469,-3.74148 -1.93854,-0.60208 -4.28718,-1.09768 -5.21918,-1.10132 -4.246566,-0.0166 -9.945271,2.88209 -13.414421,6.82324 -2.548229,2.89495 -6.619971,11.43838 -5.1103,10.72257 0.215944,-0.10241 1.933701,-0.94545 3.817236,-1.87349 z m 123.673215,-1.01339 c -2.8016,-7.07533 -7.92089,-12.16071 -14.05573,-13.96264 -3.38683,-0.99478 -5.05719,-0.8867 -9.99946,0.64699 -4.0157,1.24616 -15.55725,3.41691 -22.0838,4.15354 -1.51453,0.17093 -2.7537,0.48298 -2.7537,0.69342 0,0.65508 10.64642,5.6688 13.58754,6.39879 2.03488,0.50507 6.28065,0.77384 15.64102,0.99016 l 12.84799,0.29693 3.74504,1.80916 c 2.05977,0.99504 3.82052,1.74474 3.91277,1.66603 0.0923,-0.0788 -0.28648,-1.29031 -0.84167,-2.69238 z M 109.39583,161.7459 c 3.02145,-5.86056 3.71608,-12.8039 1.87102,-18.70213 -1.16173,-3.71377 -4.35424,-9.59329 -5.08038,-9.35629 -0.84326,0.27523 -3.62465,5.37731 -4.67397,8.57372 -2.49094,7.58794 -1.15445,16.24308 3.48011,22.53718 l 1.41963,1.92798 0.86119,-1.26708 c 0.47366,-0.69689 1.42874,-2.36792 2.1224,-3.71338 z m -12.35288,0.643 c -4.37808,-5.78425 -6.13732,-11.01978 -6.13732,-18.26484 0,-5.18869 1.16164,-9.63703 4.48167,-17.16191 3.11165,-7.0526 3.1192,-7.34264 0.30953,-11.8803 -2.6203,-4.23183 -8.011,-10.06501 -12.26731,-13.27424 -1.58279,-1.19341 -4.76133,-3.134232 -7.06343,-4.312932 -4.16529,-2.13268 -9.9901,-4.30792 -10.41034,-3.88768 -0.12124,0.12122 0.46258,1.57904 1.29738,3.23957 3.01351,5.994322 3.85066,9.602942 5.40222,23.286402 1.28785,11.35783 2.07212,15.8797 3.52733,20.33761 2.6032,7.97468 7.50702,14.73349 14.54538,20.0475 2.18939,1.653 7.50742,4.74341 8.20072,4.76559 0.17204,0.005 -0.67659,-1.29715 -1.88583,-2.89477 z m 21.39695,0.35313 c 4.57087,-2.69242 11.64869,-9.68307 14.14475,-13.97056 3.95694,-6.79688 5.35192,-12.01335 6.77484,-25.33406 1.59331,-14.91597 3.30328,-22.29281 6.38741,-27.555482 0.61267,-1.04545 1.11396,-2.10835 1.11396,-2.36202 0,-0.25366 -1.61554,0.13447 -3.59011,0.86252 -12.82852,4.73002 -22.69003,13.050012 -28.10986,23.715812 l -0.98103,1.9306 2.21585,4.89858 c 3.76324,8.3194 5.01628,12.59506 5.25182,17.92039 0.33325,7.53461 -1.57663,13.64716 -6.15347,19.69399 -2.44758,3.23369 -2.22925,3.24853 2.94584,0.20023 z m 14.1017,0.0866 c 21.81787,-3.51247 33.37852,-11.34409 42.73384,-28.94955 1.39083,-2.61737 2.44092,-4.8467 2.33355,-4.95409 -0.10741,-0.10739 -1.17122,1.23962 -2.36406,2.99333 -3.07999,4.52814 -11.06278,12.61661 -16.48808,16.70637 -6.25501,4.71521 -14.76683,8.90532 -24.79532,12.20594 -7.63007,2.51127 -9.74058,3.38001 -7.11549,2.92891 0.7093,-0.12189 3.2723,-0.5408 5.69556,-0.93091 z m -53.97255,-1.97546 c -9.15849,-3.11207 -18.388518,-7.58875 -24.222379,-11.7482 -5.364931,-3.82511 -12.667467,-11.12864 -16.292037,-16.29425 -1.56408,-2.22907 -2.925311,-3.97133 -3.024955,-3.87169 -0.307191,0.3072 4.757614,9.5134 7.127928,12.95631 7.250012,10.53073 18.026975,17.07562 33.062263,20.07886 11.66264,2.32956 12.59032,2.01904 3.34918,-1.12107 z m -29.144831,1.31333 c 0.763139,-0.26602 1.387521,-0.61902 1.387521,-0.78441 0,-0.16536 -1.955412,-0.53457 -4.345367,-0.82037 -3.534304,-0.42266 -8.583066,-1.75468 -13.278322,-3.50324 -1.197051,-0.4458 0.128872,0.5863 2.23597,1.74048 3.508103,1.92158 8.14311,3.37367 12.127682,3.79942 0.266743,0.0285 1.109378,-0.16586 1.872516,-0.43188 z m 50.283205,-3.37148 c -2.641614,-8.22169 -2.163914,-13.00191 2.150506,-21.51966 1.46155,-2.88548 3.04954,-5.8226 3.52886,-6.52695 l 0.87148,-1.28062 1.38273,2.16181 c 0.76049,1.18899 2.371,4.14447 3.5789,6.56773 3.77963,7.58266 4.18232,13.18553 1.51782,21.11915 -0.57511,1.71239 -0.97921,3.18102 -0.89801,3.26365 0.0813,0.0826 0.84947,-0.80959 1.70724,-1.98268 4.26188,-5.82847 6.0157,-12.20688 5.19001,-18.87538 -0.27005,-2.18093 -0.92463,-5.2448 -1.45466,-6.80859 -1.4684,-4.33235 -10.46379,-22.13932 -11.08467,-21.94283 -0.87075,0.27556 -9.75225,18.30079 -11.06243,22.45149 -2.33013,7.38193 -1.98052,14.17887 1.04925,20.39888 1.42396,2.92336 4.06629,6.82918 4.62,6.82918 0.0779,0 -0.41577,-1.73484 -1.097026,-3.85518 z m 71.342786,2.47266 c 2.9744,-0.92306 7.15388,-2.90916 8.63477,-4.10327 0.80531,-0.64936 0.72942,-0.64886 -0.88119,0.006 -0.9693,0.39394 -2.49113,0.98106 -3.38187,1.3047 -2.52197,0.91636 -9.84752,2.41299 -11.81087,2.41299 -2.04449,0 -2.31438,0.60668 -0.55843,1.25532 1.52368,0.56285 4.36514,0.2518 7.99759,-0.87547 z m -88.33146,-5.11625 c -7.59574,-8.68256 -9.18026,-13.10045 -11.41718,-31.83279 -1.8463,-15.46115 -2.3336,-18.08301 -4.27322,-22.99142 -1.63372,-4.134272 -1.98896,-4.017692 -1.00853,0.33097 0.48184,2.13716 0.87461,8.27913 1.30823,20.45749 0.65418,18.373 0.96366,20.91755 3.04324,25.02139 1.40075,2.76425 3.96758,5.8227 6.52157,7.77064 2.02954,1.54795 8.1697,5.0805 8.85194,5.09271 0.19061,0.003 -1.1711,-1.72864 -3.02605,-3.84899 z m 47.92787,1.82849 c 7.81173,-3.92329 12.59667,-10.12359 13.73676,-17.79996 0.16202,-1.09046 0.48468,-8.92199 0.71716,-17.40339 0.38775,-14.14486 0.65705,-17.35463 1.98382,-23.644462 0.54925,-2.60387 -0.50508,-0.80925 -1.95273,3.323822 -1.70416,4.86539 -2.30641,8.30736 -3.78324,21.62199 -1.39667,12.59209 -2.53306,17.45408 -5.46931,23.40042 -1.76007,3.56437 -2.93727,5.22861 -5.9993,8.4814 -2.09525,2.22578 -3.68783,4.04687 -3.53906,4.04687 0.1487,0 2.08643,-0.91201 4.3059,-2.02669 z m -75.078089,0.86247 c 0.90596,-0.24267 0.744712,-0.43171 -1.542076,-1.80789 -3.966213,-2.38685 -7.701443,-5.53466 -11.394707,-9.60272 -3.087116,-3.4004 -3.527249,-3.72708 -5.021443,-3.72708 -3.683521,0 -11.741946,2.82829 -13.255868,4.65245 -0.967813,1.16614 7.697547,6.29833 14.437274,8.5507 5.259978,1.75784 13.772115,2.73937 16.77682,1.93454 z m 112.474509,-0.60502 c 7.47265,-1.52284 15.27616,-4.83633 19.0911,-8.10642 l 1.72147,-1.47559 -1.78576,-1.18176 c -2.52143,-1.6686 -7.37315,-3.25985 -10.94791,-3.59067 l -3.04584,-0.28188 -3.08414,3.65831 c -3.25306,3.85866 -7.96966,7.88688 -11.66459,9.96214 -1.21725,0.68367 -2.21338,1.39174 -2.21363,1.57349 -8.3e-4,0.66537 7.69267,0.30575 11.9293,-0.55762 z M 72.448,154.79713 c -2.11191,-2.11191 -3.47909,-3.98011 -4.59468,-6.27844 -2.46912,-5.08688 -3.08226,-8.8557 -3.18442,-19.57383 -0.0485,-5.08884 -0.11309,-9.47586 -0.1435,-9.74892 -0.0597,-0.53584 -3.27905,-2.02969 -6.860652,-3.18348 -3.299034,-1.06276 -14.914236,-1.01851 -18.528697,0.0706 -4.603362,1.38707 -6.388589,2.16889 -6.388589,2.79784 0,1.0364 3.490261,7.66567 6.105888,11.59729 4.867196,7.31602 14.476474,16.19553 22.8962,21.15739 2.86318,1.68731 12.567,6.15478 13.38972,6.1644 0.17339,0.002 -1.03768,-1.34925 -2.69127,-3.00283 z m 67.80733,1.86925 c 10.25838,-4.16835 17.76074,-9.07909 25.14232,-16.45715 5.9959,-5.99302 10.16197,-11.71434 12.99515,-17.84638 1.32589,-2.8697 1.49232,-3.53876 1.0007,-4.02267 -0.32434,-0.31926 -2.3741,-1.11396 -4.55504,-1.76601 -5.11054,-1.52795 -13.43318,-1.95462 -17.86607,-0.91593 -2.93196,0.687 -7.17112,2.16507 -8.32113,2.90134 -0.50893,0.32582 -0.69235,2.59032 -0.93666,11.56352 -0.28142,10.33715 -0.38601,11.40153 -1.42126,14.46278 -1.5589,4.60977 -2.89063,6.76441 -6.31795,10.22202 -1.63322,1.64766 -2.86812,2.99575 -2.7442,2.99575 0.1239,0 1.48479,-0.51177 3.02414,-1.13727 z m -36.99521,-45.34341 c 1.5133,-2.78774 2.87576,-5.06861 3.0277,-5.06861 0.15186,0 1.52307,2.28006 3.04697,5.06681 1.52391,2.78674 2.93065,5.06681 3.12608,5.06681 0.43972,0 4.60853,-6.749 5.61025,-9.08262 1.04377,-2.43153 0.93348,-7.963292 -0.23177,-11.625222 -0.50122,-1.57512 -1.93278,-4.64824 -3.18127,-6.82918 -2.89247,-5.05277 -8.02313,-12.99013 -8.39942,-12.99428 -0.57541,-0.006 -7.09471,10.47256 -9.45473,15.19724 -1.83098,3.66555 -2.52657,5.61408 -2.85458,7.99646 -0.70393,5.112702 -0.043,7.831482 3.20395,13.179812 1.51391,2.49368 2.8882,4.45013 3.05398,4.34767 0.16577,-0.10246 1.53955,-2.46715 3.05284,-5.25489 z m 19.61752,-8.64953 c 1.3488,-2.60832 0.32027,-6.730842 -2.86893,-11.499102 -3.4352,-5.13604 -4.33356,-5.60543 -2.26872,-1.18541 2.18651,4.68055 3.12593,8.31302 3.12593,12.087202 0,2.64049 0.0754,2.90179 0.68994,2.39175 0.37946,-0.31493 0.97427,-1.12243 1.32178,-1.79444 z M 92.88778,94.653258 c 0.40619,-1.25266 1.50866,-3.75362 2.44993,-5.55769 0.94127,-1.80407 1.63145,-3.36008 1.53373,-3.45781 -0.35572,-0.35571 -5.37323,6.85615 -6.39232,9.18792 -0.57606,1.3181 -1.13166,3.487 -1.23466,4.81979 -0.15812,2.045912 -0.0262,2.627602 0.8471,3.735442 l 1.03437,1.31217 0.51166,-3.88113 c 0.28141,-2.134622 0.84399,-4.906032 1.25019,-6.158692 z m 12.94827,-22.45101 c -73.493251,65.973802 -36.74663,32.986902 0,0 z"
       style="fill:#8e9c77;fill-opacity:1;stroke-width:0.44059223"
       sodipodi:nodetypes="cscccccccscccscscssccssssscccssccssccccscscccscccccscscccccscccccccscsccccssccscccccscsccscscccccccssccccccccsccccccccccssscsccccccccsccccsssssccssccccccsscscccsccsccsccccsscsscccsccscccscccssccccsssscccccscccssscssscssccccscssssssscsssccccccccsccscscsssccccsccssccccsccscsccccscscccccsccscsccccsscc" />
  </g>
</svg>
